# xmcd
#
# Track frame offsets:
#	150
#	14538
#	34253
#	59630
#	83046
#	97543
#	114994
#	153591
#	173257
#	186500
#	203837
#	223209
#	235159
#
# Disc length: 3534 seconds
#
# Revision: 7
# Processed by: cddbd v1.4PL0 Copyright (c) Steve Scherf et al.
# Submitted via: CDmax 1.9
#
DISCID=a80dcc0d
DTITLE=Good and Dry - Plug and Play
DYEAR=1900
DGENRE=
TTITLE0=Bad case of lovin' you
TTITLE1=Playin' by your rules
TTITLE2=Call me the breeze
TTITLE3=All your love
TTITLE4=Junior's waitin'
TTITLE5=Get out of the rut
TTITLE6=Stormy monday
TTITLE7=You're too much
TTITLE8=In my chair
TTITLE9=Dead flowers
TTITLE10=Hot legs
TTITLE11=Blues ain't blues
TTITLE12=Ridin' on L&N (live)
EXTD=Want to know more about GOOD&DRY ??\n\nwww.goodanddry.de
EXTT0=
EXTT1=
EXTT2=
EXTT3=
EXTT4=
EXTT5=
EXTT6=
EXTT7=
EXTT8=
EXTT9=
EXTT10=
EXTT11=
EXTT12=
PLAYORDER=
